<svg width="30" height="27" viewBox="0 0 30 27" fill="none" xmlns="http://www.w3.org/2000/svg">
<path d="M26.1914 2.08984C25.957 1.21094 25.1953 0.625 24.375 0.625H5.625C4.74609 0.625 3.98438 1.21094 3.75 2.03125L0.175781 16.6211C0.0585938 17.207 0 17.8516 0 18.4375V24.0625C0 25.6445 1.23047 26.875 2.8125 26.875H27.1875C28.7109 26.875 30 25.6445 30 24.0625V18.4375C30 17.8516 29.8828 17.207 29.7656 16.6211L26.1914 2.08984ZM20.625 19.375H9.375L7.5 15.625H4.21875L7.08984 4.375H22.9102L25.7227 15.625H22.5L20.625 19.375Z" fill="#24252D"/>
</svg>
