<svg width="16" height="16" viewBox="0 0 16 16" fill="none" xmlns="http://www.w3.org/2000/svg">
<path d="M15.4062 5.09375C14.625 4.5 14 4 10.2812 1.3125C9.75 0.9375 8.71875 0 8 0H7.96875C7.25 0 6.21875 0.9375 5.6875 1.3125C1.96875 4 1.34375 4.46875 0.5625 5.09375C0.1875 5.375 0 5.8125 0 6.28125V14.5C0 15.3438 0.65625 16 1.5 16H14.5C15.3125 16 16 15.3438 16 14.5312V6.28125C16 5.8125 15.7812 5.375 15.4062 5.09375ZM9.46875 11.5C9.03125 11.8438 8.5 12 8 12C7.46875 12 6.9375 11.8438 6.5 11.5L2 7.96875V6.53125C2.65625 6 3.4375 5.40625 6.875 2.90625C6.96875 2.84375 7.09375 2.75 7.21875 2.65625C7.375 2.53125 7.71875 2.25 8 2.09375C8.25 2.25 8.59375 2.53125 8.75 2.65625C8.875 2.75 9 2.84375 9.09375 2.9375C12.5 5.40625 13.3125 6 14 6.53125V7.96875L9.46875 11.5Z" fill="black"/>
</svg>
