<svg width="21" height="17" viewBox="0 0 21 17" fill="none" xmlns="http://www.w3.org/2000/svg">
<path d="M0 2.625C0 1.39453 0.984375 0.375 2.25 0.375H18C19.2305 0.375 20.25 1.39453 20.25 2.625V13.875C20.25 15.1406 19.2305 16.125 18 16.125H2.25C0.984375 16.125 0 15.1406 0 13.875V2.625ZM10.6875 4.875C10.3711 4.875 10.125 5.15625 10.125 5.4375V11.0625C10.125 11.3789 10.3711 11.625 10.6875 11.625C10.9688 11.625 11.25 11.3789 11.25 11.0625V5.4375C11.25 5.15625 10.9688 4.875 10.6875 4.875ZM12.375 5.4375V8.25V11.0625C12.375 11.3789 12.6211 11.625 12.9375 11.625C13.2188 11.625 13.5 11.3789 13.5 11.0625V8.8125H15.75C16.0312 8.8125 16.3125 8.56641 16.3125 8.25C16.3125 7.96875 16.0312 7.6875 15.75 7.6875H13.5V6H16.3125C16.5938 6 16.875 5.75391 16.875 5.4375C16.875 5.15625 16.5938 4.875 16.3125 4.875H12.9375C12.6211 4.875 12.375 5.15625 12.375 5.4375ZM4.5 8.25C4.5 7.01953 5.48438 6 6.75 6C7.24219 6 7.69922 6.17578 8.08594 6.45703C8.33203 6.66797 8.68359 6.59766 8.85938 6.35156C9.07031 6.10547 9 5.75391 8.75391 5.57812C8.19141 5.15625 7.48828 4.875 6.75 4.875C4.88672 4.875 3.375 6.38672 3.375 8.25C3.375 10.1133 4.88672 11.625 6.75 11.625C7.48828 11.625 8.19141 11.3789 8.75391 10.957C8.89453 10.8516 9 10.6758 9 10.5V8.53125C9 8.25 8.71875 7.96875 8.4375 7.96875H6.46875C6.15234 7.96875 5.90625 8.25 5.90625 8.53125C5.90625 8.84766 6.15234 9.09375 6.46875 9.09375H7.875V10.2188C7.52344 10.3945 7.13672 10.5 6.75 10.5C5.48438 10.5 4.5 9.51562 4.5 8.25Z" fill="#909090"/>
</svg>
