<svg width="17" height="19" viewBox="0 0 17 19" fill="none" xmlns="http://www.w3.org/2000/svg">
<path d="M13.9219 3.20312C13.043 2.35938 11.6719 2.35938 10.793 3.20312L4.32422 9.67188C2.84766 11.1484 2.84766 13.5742 4.32422 15.0508C5.80078 16.5273 8.22656 16.5273 9.70312 15.0508L15.0469 9.70703C15.4336 9.32031 16.0312 9.32031 16.418 9.70703C16.8047 10.0938 16.8047 10.6914 16.418 11.0781L11.0742 16.4219C8.82422 18.6719 5.20312 18.6719 2.95312 16.4219C0.703125 14.1719 0.703125 10.5508 2.95312 8.30078L9.42188 1.83203C11.0391 0.179688 13.6758 0.179688 15.293 1.83203C16.9453 3.44922 16.9453 6.08594 15.293 7.70312L9.10547 13.8906C8.12109 14.9102 6.46875 14.9102 5.48438 13.8906C4.46484 12.9062 4.46484 11.2539 5.48438 10.2695L10.5469 5.20703C10.9336 4.82031 11.5312 4.82031 11.918 5.20703C12.3047 5.59375 12.3047 6.19141 11.918 6.57812L6.85547 11.6406C6.64453 11.8867 6.64453 12.2734 6.85547 12.5195C7.10156 12.7305 7.48828 12.7305 7.73438 12.5195L13.9219 6.33203C14.7656 5.45312 14.7656 4.08203 13.9219 3.20312Z" fill="#909090"/>
</svg>
