<svg width="31" height="27" viewBox="0 0 31 27" fill="none" xmlns="http://www.w3.org/2000/svg">
<path d="M5.625 26.875H9.375C10.3711 26.875 11.25 26.0547 11.25 25C11.25 24.0039 10.3711 23.125 9.375 23.125H5.625C4.57031 23.125 3.75 22.3047 3.75 21.25V6.25C3.75 5.25391 4.57031 4.375 5.625 4.375H9.375C10.3711 4.375 11.25 3.55469 11.25 2.5C11.25 1.50391 10.3711 0.625 9.375 0.625H5.625C2.46094 0.625 0 3.14453 0 6.25V21.25C0 24.3555 2.46094 26.875 5.625 26.875ZM29.5312 12.7539L21.0938 4.78516C20.6836 4.375 20.0977 4.31641 19.5703 4.49219C19.043 4.72656 18.75 5.25391 18.75 5.78125V10H11.25C10.1953 10 9.375 10.8789 9.375 11.875V15.625C9.375 16.6797 10.1953 17.5 11.25 17.5H18.75V21.7188C18.75 22.2461 19.043 22.7734 19.5703 23.0078C20.0977 23.1836 20.6836 23.125 21.0938 22.7148L29.5312 14.7461C30.1172 14.2773 30.1172 13.2812 29.5312 12.7539Z" fill="#525662"/>
</svg>
