<svg width="22" height="18" viewBox="0 0 22 18" fill="none" xmlns="http://www.w3.org/2000/svg">
<path d="M2.1875 1.1875C1.875 0.90625 1.40625 0.96875 1.15625 1.3125C0.875 1.625 0.9375 2.09375 1.28125 2.34375L19.7812 16.8438C20.0938 17.125 20.5625 17.0625 20.8125 16.7188C21.0938 16.4062 21.0312 15.9375 20.6875 15.6875L18.125 13.6562C18.6562 13.2812 19 12.6875 19 12V3C19 1.90625 18.0938 1 17 1H5C4.25 1 3.59375 1.40625 3.25 2L2.1875 1.1875ZM3 12C3 13.125 3.875 14 5 14H8V16.5C8 16.7188 8.09375 16.875 8.25 16.9688C8.4375 17.0312 8.625 17.0312 8.78125 16.9062L12.6562 14H13.6875L3 5.59375V12Z" fill="#909090"/>
</svg>
