<svg width="19" height="15" viewBox="0 0 19 15" fill="none" xmlns="http://www.w3.org/2000/svg">
<path d="M2.03906 0.914062C1.76562 0.667969 1.35547 0.722656 1.13672 1.02344C0.890625 1.29688 0.945312 1.70703 1.24609 1.92578L17.4336 14.6133C17.707 14.8594 18.1172 14.8047 18.3359 14.5039C18.582 14.2305 18.5273 13.8203 18.2266 13.6016L15.9844 11.8242C16.4492 11.4961 16.75 10.9766 16.75 10.375V2.5C16.75 1.54297 15.957 0.75 15 0.75H4.5C3.84375 0.75 3.26953 1.10547 2.96875 1.625L2.03906 0.914062ZM2.75 10.375C2.75 11.3594 3.51562 12.125 4.5 12.125H7.125V14.3125C7.125 14.5039 7.20703 14.6406 7.34375 14.7227C7.50781 14.7773 7.67188 14.7773 7.80859 14.668L11.1992 12.125H12.1016L2.75 4.76953V10.375Z" fill="white"/>
</svg>
