<svg width="20" height="17" viewBox="0 0 20 17" fill="none" xmlns="http://www.w3.org/2000/svg">
<path d="M5 0C3.875 0 3 0.90625 3 2V5.5H1.84375C1.6875 5.21875 1.34375 5 1 5C0.4375 5 0 5.46875 0 6C0 6.5625 0.4375 7 1 7C1.34375 7 1.6875 6.8125 1.84375 6.5H3V11C3 12.125 3.875 13 5 13H7V15.5C7 15.7188 7.09375 15.875 7.25 15.9688C7.4375 16.0312 7.625 16.0312 7.78125 15.9062L11.6562 13H15C16.0938 13 17 12.125 17 11V6.5H18.125C18.2812 6.8125 18.625 7 19 7C19.5312 7 20 6.5625 20 6C20 5.46875 19.5312 5 19 5C18.625 5 18.2812 5.21875 18.125 5.5H17V2C17 0.90625 16.0938 0 15 0H5ZM5 4C5 3.46875 5.4375 3 6 3H14C14.5312 3 15 3.46875 15 4V8C15 8.5625 14.5312 9 14 9H6C5.4375 9 5 8.5625 5 8V4ZM7 7C7.53125 7 8 6.5625 8 6C8 5.46875 7.53125 5 7 5C6.4375 5 6 5.46875 6 6C6 6.5625 6.4375 7 7 7ZM13 7C13.5312 7 14 6.5625 14 6C14 5.46875 13.5312 5 13 5C12.4375 5 12 5.46875 12 6C12 6.5625 12.4375 7 13 7Z" fill="#F1FF9F"/>
</svg>
