<svg width="30" height="31" viewBox="0 0 30 31" fill="none" xmlns="http://www.w3.org/2000/svg">
<path d="M29.0039 10.5352C29.2383 11.0625 29.0625 11.5898 28.6523 12L26.1328 14.2852C26.1914 14.7539 26.25 15.2812 26.25 15.75C26.25 16.2773 26.1914 16.8047 26.1328 17.2734L28.6523 19.5586C29.0625 19.9688 29.2383 20.4961 29.0039 21.0234C28.7695 21.7266 28.4766 22.3711 28.125 23.0156L27.832 23.4844C27.4219 24.1289 27.0117 24.7734 26.543 25.3594C26.1914 25.7695 25.6055 25.8867 25.0781 25.7109L21.8555 24.7148C21.0352 25.3008 20.1562 25.7695 19.2773 26.1797L18.5156 29.5195C18.3984 30.0469 17.9883 30.457 17.4609 30.5742C16.6406 30.6914 15.8203 30.75 14.9414 30.75C14.1211 30.75 13.3008 30.6914 12.4805 30.5742C11.9531 30.457 11.543 30.0469 11.4258 29.5195L10.6641 26.1797C9.78516 25.7695 8.90625 25.3008 8.08594 24.7148L4.86328 25.7109C4.33594 25.8867 3.75 25.7695 3.39844 25.3594C2.92969 24.7734 2.51953 24.1289 2.10938 23.4844L1.81641 23.0156C1.46484 22.3711 1.17188 21.7266 0.9375 21.0234C0.703125 20.4961 0.878906 19.9688 1.28906 19.5586L3.80859 17.2734C3.75 16.8047 3.75 16.2773 3.75 15.75C3.75 15.2812 3.75 14.7539 3.80859 14.2852L1.28906 12C0.878906 11.5898 0.703125 11.0625 0.9375 10.5352C1.17188 9.83203 1.46484 9.1875 1.81641 8.54297L2.10938 8.07422C2.51953 7.42969 2.92969 6.78516 3.39844 6.19922C3.75 5.78906 4.33594 5.67188 4.86328 5.84766L8.08594 6.84375C8.90625 6.25781 9.78516 5.73047 10.6641 5.37891L11.4258 2.03906C11.543 1.51172 11.9531 1.10156 12.4805 0.984375C13.3008 0.867188 14.1211 0.75 15 0.75C15.8203 0.75 16.6406 0.867188 17.4609 0.984375C17.9883 1.10156 18.3984 1.51172 18.5156 2.03906L19.2773 5.37891C20.1562 5.73047 21.0352 6.25781 21.8555 6.84375L25.0781 5.84766C25.6055 5.67188 26.1914 5.78906 26.543 6.19922C27.0117 6.78516 27.4219 7.42969 27.832 8.07422L28.125 8.54297C28.4766 9.1875 28.7695 9.83203 29.0039 10.5352ZM15 20.4375C17.5781 20.4375 19.6875 18.3867 19.6875 15.75C19.6875 13.1719 17.5781 11.0625 15 11.0625C12.3633 11.0625 10.3125 13.1719 10.3125 15.75C10.3125 18.3867 12.3633 20.4375 15 20.4375Z" fill="#525662"/>
</svg>
