<svg width="26" height="28" viewBox="0 0 26 28" fill="none" xmlns="http://www.w3.org/2000/svg">
<path d="M13 0C14.0625 0 15 0.9375 15 2V10.5L21.9375 6.3125C22.875 5.75 24.125 6.0625 24.6875 7C25.25 7.9375 24.9375 9.1875 24 9.75L16.875 14L24 18.3125C24.9375 18.875 25.25 20.125 24.6875 21.0625C24.125 22 22.875 22.3125 21.9375 21.75L15 17.5625V26C15 27.125 14.0625 28 13 28C11.875 28 11 27.125 11 26V17.5625L4 21.75C3.0625 22.3125 1.8125 22 1.25 21.0625C0.6875 20.125 1 18.875 1.9375 18.3125L9.0625 14L1.9375 9.75C1 9.1875 0.6875 7.9375 1.25 7C1.8125 6.0625 3.0625 5.75 4 6.3125L11 10.5V2C11 0.9375 11.875 0 13 0Z" fill="#F1FF9F"/>
</svg>
