<svg width="32" height="31" viewBox="0 0 32 31" fill="none" xmlns="http://www.w3.org/2000/svg">
<path d="M20.3945 13.9336C22.0938 13.9336 23.6172 14.5781 24.7891 15.75L25.9609 16.8633C28.3047 15.8086 30.1211 13.7578 30.707 11.2383C31.0586 9.83203 31.0586 8.42578 30.7656 7.19531C30.5898 6.55078 29.7695 6.375 29.3008 6.84375L25.2578 10.8281H20.8633V6.49219L24.9062 2.44922C25.375 1.98047 25.1406 1.16016 24.4961 0.984375C23.2656 0.691406 21.918 0.691406 20.5117 1.04297C17.2305 1.80469 14.7109 4.55859 14.1836 7.83984C14.125 8.30859 14.125 8.77734 14.125 9.24609L18.9883 14.1094C19.457 13.9922 19.9258 13.9336 20.3945 13.9336ZM23.5 17.0977C22.0938 15.75 20.1016 15.5156 18.4609 16.2773L12.1914 10.0078V6.375L4.75 0.75L1 4.5L6.625 11.9414H10.2578L16.4688 18.1523C15.707 19.793 15.9414 21.8438 17.2891 23.1914L24.1445 30.0469C25.0234 30.8672 26.3711 30.8672 27.25 30.0469L30.3555 26.9414C31.1758 26.1211 31.1758 24.7148 30.3555 23.8359L23.5 17.0977ZM14.3008 18.7383L10.8438 15.2812L2.11328 24.0117C0.589844 25.5938 0.589844 28.0547 2.11328 29.6367C2.875 30.3984 3.92969 30.75 4.92578 30.75C5.92188 30.75 6.97656 30.3984 7.73828 29.6367L14.7109 22.6641C14.1836 21.4336 14.0078 20.0859 14.3008 18.7383ZM4.75 28.4062C3.92969 28.4062 3.34375 27.8203 3.34375 27C3.34375 26.2383 3.92969 25.5938 4.75 25.5938C5.51172 25.5938 6.15625 26.2383 6.15625 27C6.15625 27.8203 5.51172 28.4062 4.75 28.4062Z" fill="#525662"/>
</svg>
